<?xml version="1.0" encoding="UTF-8" standalone="no"?>
<svg
   xmlns:dc="http://purl.org/dc/elements/1.1/"
   xmlns:cc="http://creativecommons.org/ns#"
   xmlns:rdf="http://www.w3.org/1999/02/22-rdf-syntax-ns#"
   xmlns:svg="http://www.w3.org/2000/svg"
   xmlns="http://www.w3.org/2000/svg"
   xmlns:sodipodi="http://sodipodi.sourceforge.net/DTD/sodipodi-0.dtd"
   xmlns:inkscape="http://www.inkscape.org/namespaces/inkscape"
   width="20.469004"
   height="13.945065"
   viewBox="0 0 20.469004 13.945065"
   version="1.1"
   id="svg865"
   sodipodi:docname="eye_profile.svg"
   inkscape:version="0.92.3 (2405546, 2018-03-11)">
  <metadata
     id="metadata871">
    <rdf:RDF>
      <cc:Work
         rdf:about="">
        <dc:format>image/svg+xml</dc:format>
        <dc:type
           rdf:resource="http://purl.org/dc/dcmitype/StillImage" />
        <dc:title></dc:title>
      </cc:Work>
    </rdf:RDF>
  </metadata>
  <defs
     id="defs869" />
  <sodipodi:namedview
     pagecolor="#ffffff"
     bordercolor="#666666"
     borderopacity="1"
     objecttolerance="10"
     gridtolerance="10"
     guidetolerance="10"
     inkscape:pageopacity="0"
     inkscape:pageshadow="2"
     inkscape:window-width="1920"
     inkscape:window-height="1007"
     id="namedview867"
     showgrid="false"
     inkscape:pagecheckerboard="true"
     inkscape:zoom="34.5"
     inkscape:cx="8.5745799"
     inkscape:cy="8.4037574"
     inkscape:window-x="0"
     inkscape:window-y="0"
     inkscape:window-maximized="1"
     inkscape:current-layer="svg865"
     fit-margin-top="0"
     fit-margin-left="0"
     fit-margin-right="0"
     fit-margin-bottom="0" />
  <path
     id="path898"
     style="fill:#cccccc;stroke-width:0.60830158"
     d="m 7.0859372,4.2128906 c -4.7239581,6.4881164 -2.3619791,3.244058 0,0 z M 13.148438,2.9960938 c -0.02855,0.086438 0.01297,-0.00607 -0.07031,0.1914062 -0.06728,0.1208457 -0.05413,0.1070288 -0.136719,0.2148438 -0.0473,0.061759 -0.06508,0.070697 -0.101562,0.1328124 -0.01126,0.019178 -0.01881,0.038979 -0.0293,0.058594 -0.01501,0.028081 -0.03129,0.056224 -0.04687,0.083984 -0.05209,0.060128 -0.09282,0.1287224 -0.128906,0.1992187 -0.0041,0.00809 -0.005,0.015715 -0.0098,0.023437 -0.01314,0.021138 -0.04197,0.058262 -0.05859,0.080078 -0.04114,0.069854 -0.07951,0.1331275 -0.140625,0.1875 -0.01292,0.011843 -0.02577,0.02373 -0.03906,0.035156 -0.0071,0.00613 -0.006,0.00486 -0.01172,0.00977 h 6.876953 V 12.728516 H 7.0859375 V 7.7695312 c -0.018423,0.012909 -0.036478,0.026339 -0.054687,0.039063 -0.1003993,0.058597 -0.2062355,0.102174 -0.3203125,0.125 -0.027191,0.00544 -0.054937,0.00777 -0.082031,0.013672 -0.021445,0.00467 -0.1199847,0.037935 -0.1347656,0.042969 -0.028193,0.00892 -0.057724,0.018491 -0.085937,0.027344 -0.024736,0.00776 -0.049841,0.014615 -0.074219,0.023437 -0.097649,0.035338 -0.034102,0.021726 -0.1445313,0.056641 -0.217378,0.068729 0.00812,-0.016389 -0.1972656,0.064453 -0.055669,0.019569 -0.089783,0.026606 -0.1230469,0.037109 V 13.945312 H 20.46875 V 2.9960938 Z M 11.34375,5.4296875 c -0.320996,0 -0.615079,0.077235 -0.857422,0.2285156 -7.15e-4,4.466e-4 -0.0012,0.00151 -0.002,0.00195 -0.0341,0.030805 -0.06519,0.063622 -0.09766,0.097656 -0.0058,0.0061 -0.0142,0.011046 -0.01953,0.017578 -0.0025,0.00306 0.01121,-0.00955 0.0098,-0.00586 -0.0039,0.010356 -0.01168,0.017968 -0.01758,0.027344 -0.03163,0.040045 -0.0298,0.043896 -0.08008,0.076172 -0.0181,0.011616 -0.04096,0.016974 -0.05859,0.029297 -0.01358,0.0095 -0.02311,0.023776 -0.03516,0.035156 -0.01875,0.017701 -0.02929,0.024456 -0.04102,0.035156 -0.4408751,0.566752 -0.4847645,1.5621719 0.253907,2.9238282 0.40452,0.7469938 -0.4375691,0.9220505 -1.2910161,1.1191407 -0.778631,0.180057 -0.8070875,0.565756 -0.8046875,1.242187 v 0.253907 h 6.0839846 v -0.244141 c 0.003,-0.681906 -0.02363,-1.071287 -0.804688,-1.251953 C 12.710335,9.8142769 11.897444,9.6386122 12.291016,8.8964844 13.486327,6.6372524 12.607193,5.4296875 11.34375,5.4296875 Z m 4.259766,0 v 1.2148437 h 2.43164 V 5.4296875 Z m 0,2.4316406 V 9.078125 h 2.43164 V 7.8613281 Z m 0,2.4335939 v 1.216797 h 2.43164 v -1.216797 z"
     inkscape:connector-curvature="0"
     sodipodi:nodetypes="cccccccccccccccccccccccccccccccsccccccccccccccccccsccccccccccccccc" />
  <path
     d="m 7.6068545,3.5498654 c 0,0.8403041 -0.681067,1.5213711 -1.521371,1.5213711 -0.840304,0 -1.521371,-0.681067 -1.521371,-1.5213711 0,-0.1009177 0.01014,-0.1992994 0.02891,-0.2946389 0.747501,0.2743541 1.484351,-0.447283 1.219633,-1.2023901 0.08824,-0.015213 0.179522,-0.024342 0.272832,-0.024342 0.840304,0 1.52137,0.681574 1.52137,1.521371 z M 6.0930905,0 C 2.2546717,0 0,3.3221671 0,3.3221671 c 0,0 2.4519428,3.777564 6.0930905,3.777564 3.9215865,0 6.0778755,-3.777564 6.0778755,-3.777564 C 12.170966,3.3221671 9.9948995,0 6.0930905,0 Z m -0.0076,6.0854841 c -1.400168,0 -2.5356182,-1.1349432 -2.5356182,-2.5356186 0,-1.4001684 1.1354502,-2.5356182 2.5356182,-2.5356182 1.400675,0 2.535618,1.1354498 2.535618,2.5356182 0,1.4006754 -1.134943,2.5356186 -2.535618,2.5356186 z"
     id="path863"
     inkscape:connector-curvature="0"
     style="fill:#ffffff;stroke-width:0.50712365" />
</svg>
