<?xml version="1.0" encoding="UTF-8" standalone="no"?>
<svg
   xmlns:dc="http://purl.org/dc/elements/1.1/"
   xmlns:cc="http://creativecommons.org/ns#"
   xmlns:rdf="http://www.w3.org/1999/02/22-rdf-syntax-ns#"
   xmlns:svg="http://www.w3.org/2000/svg"
   xmlns="http://www.w3.org/2000/svg"
   xmlns:sodipodi="http://sodipodi.sourceforge.net/DTD/sodipodi-0.dtd"
   xmlns:inkscape="http://www.inkscape.org/namespaces/inkscape"
   width="4.5826535"
   height="3.6425781"
   viewBox="0 0 4.5826537 3.6425781"
   version="1.1"
   id="svg865"
   sodipodi:docname="eye_sigma.svg"
   inkscape:version="0.92.3 (2405546, 2018-03-11)">
  <metadata
     id="metadata871">
    <rdf:RDF>
      <cc:Work
         rdf:about="">
        <dc:format>image/svg+xml</dc:format>
        <dc:type
           rdf:resource="http://purl.org/dc/dcmitype/StillImage" />
        <dc:title></dc:title>
      </cc:Work>
    </rdf:RDF>
  </metadata>
  <defs
     id="defs869" />
  <sodipodi:namedview
     pagecolor="#ffffff"
     bordercolor="#666666"
     borderopacity="1"
     objecttolerance="10"
     gridtolerance="10"
     guidetolerance="10"
     inkscape:pageopacity="0"
     inkscape:pageshadow="2"
     inkscape:window-width="1920"
     inkscape:window-height="1007"
     id="namedview867"
     showgrid="false"
     inkscape:pagecheckerboard="true"
     inkscape:zoom="256"
     inkscape:cx="2.4357063"
     inkscape:cy="2.0755771"
     inkscape:window-x="0"
     inkscape:window-y="0"
     inkscape:window-maximized="1"
     inkscape:current-layer="svg865"
     fit-margin-top="0"
     fit-margin-left="0"
     fit-margin-right="0"
     fit-margin-bottom="0" />
  <text
     xml:space="preserve"
     style="font-style:normal;font-weight:normal;font-size:3.76110291px;line-height:1.25;font-family:sans-serif;letter-spacing:0px;word-spacing:0px;fill:#ffffff;fill-opacity:1;stroke:none;stroke-width:0.09402757"
     x="2.4407055"
     y="3.6425781"
     id="text877"><tspan
       sodipodi:role="line"
       id="tspan875"
       x="2.4407055"
       y="3.6425781"
       style="font-style:normal;font-variant:normal;font-weight:normal;font-stretch:normal;font-family:Lato;-inkscape-font-specification:Lato;fill:#ffffff;stroke-width:0.09402757">Σ</tspan></text>
  <path
     inkscape:connector-curvature="0"
     style="fill:#cccccc;stroke-width:0.14311436"
     d="M 1.71875,0 C 0.6355174,0 0,0.93749996 0,0.93749996 c 0,0 0.6911889,1.06640624 1.71875,1.06640624 0.4795265,0 0.8590872,-0.2028406 1.1425781,-0.4296874 L 2.5410156,1.1894531 c -0.012537,-0.013791 -0.022474,-0.030023 -0.03125,-0.048828 -0.00878,-0.018806 -0.013672,-0.037835 -0.013672,-0.056641 V 0.92578126 H 3.4257812 C 3.4010768,0.88876276 2.7972096,0 1.71875,0 Z M 1.7168,0.28710938 c 0.3952814,0 0.7167969,0.31970507 0.7167969,0.71484372 0,0.3952819 -0.3215155,0.7148438 -0.7167969,0.7148438 -0.3951388,0 -0.7148438,-0.3195619 -0.7148438,-0.7148438 0,-0.39513866 0.319705,-0.71484373 0.7148438,-0.71484372 z m 0,0.28515624 c -0.026333,0 -0.05127,0.003513 -0.076172,0.007813 0.074706,0.21309731 -0.1327993,0.41531564 -0.34375,0.33789064 -0.0053,0.026905 -0.00977,0.055504 -0.00977,0.083984 0,0.2371408 0.192547,0.4296877 0.4296875,0.4296877 0.2371407,0 0.4296875,-0.1925469 0.4296875,-0.4296877 -6e-7,-0.23699691 -0.1925469,-0.42968723 -0.4296875,-0.42968723 z"
     id="path863"
     sodipodi:nodetypes="scscccsccsssssscccssccc" />
</svg>
