<?xml version="1.0" encoding="UTF-8" standalone="no"?>
<svg
   xmlns:dc="http://purl.org/dc/elements/1.1/"
   xmlns:cc="http://creativecommons.org/ns#"
   xmlns:rdf="http://www.w3.org/1999/02/22-rdf-syntax-ns#"
   xmlns:svg="http://www.w3.org/2000/svg"
   xmlns="http://www.w3.org/2000/svg"
   xmlns:sodipodi="http://sodipodi.sourceforge.net/DTD/sodipodi-0.dtd"
   xmlns:inkscape="http://www.inkscape.org/namespaces/inkscape"
   width="24"
   height="24"
   viewBox="0 0 24 24"
   id="svg3446"
   version="1.1"
   inkscape:version="0.91 r13725"
   sodipodi:docname="lowlvl.svg">
  <metadata
     id="metadata3454">
    <rdf:RDF>
      <cc:Work
         rdf:about="">
        <dc:format>image/svg+xml</dc:format>
        <dc:type
           rdf:resource="http://purl.org/dc/dcmitype/StillImage" />
        <dc:title></dc:title>
      </cc:Work>
    </rdf:RDF>
  </metadata>
  <defs
     id="defs3452" />
  <sodipodi:namedview
     pagecolor="#000000"
     bordercolor="#666666"
     borderopacity="1"
     objecttolerance="10"
     gridtolerance="10"
     guidetolerance="10"
     inkscape:pageopacity="0"
     inkscape:pageshadow="2"
     inkscape:window-width="2560"
     inkscape:window-height="1296"
     id="namedview3450"
     showgrid="false"
     inkscape:zoom="19.666667"
     inkscape:cx="21.20339"
     inkscape:cy="14.120432"
     inkscape:window-x="0"
     inkscape:window-y="52"
     inkscape:window-maximized="1"
     inkscape:current-layer="text3471" />
  <path
     d="m 22.33898,16.012712 0,-2.29661 c 0,-1.902167 -1.53326,-3.444915 -3.423729,-3.444915 -1.890469,0 -3.423729,1.542748 -3.423729,3.444915 l 0,2.29661 -1.711864,0 0,8.038136 10.271186,0 0,-8.038136 -1.711864,0 z m -2.853107,4.43418 0,1.307346 -1.141243,0 0,-1.307346 c -0.33952,-0.19923 -0.570622,-0.564966 -0.570622,-0.989264 0,-0.633865 0.511277,-1.148305 1.141243,-1.148305 0.629966,0 1.141243,0.51444 1.141243,1.148305 0,0.423724 -0.230531,0.790034 -0.570621,0.989264 z m -2.853108,-4.43418 0,-2.29661 c 0,-1.26658 1.023695,-2.29661 2.282486,-2.29661 1.25822,0 2.282486,1.03003 2.282486,2.29661 l 0,2.29661 -4.564972,0 z"
     id="path3448"
     inkscape:connector-curvature="0"
     style="fill:#ffffff" />
  <path
     inkscape:connector-curvature="0"
     style="fill:#ffffff"
     d="M 7.5000002,0.01694976 C 3.5387502,0.01694976 3.7653947e-8,2.7485485 3.7653947e-8,6.4852656 3.7653947e-8,7.8103431 0.46125004,9.1115041 1.2793751,10.121147 1.3137501,11.30401 0.64000004,13.001395 0.03375004,14.237272 1.6600001,13.933474 3.9718752,13.262532 5.0200002,12.598055 10.7925,14.050468 15,10.397149 15,6.4852656 15,2.7285104 11.436875,0.01694976 7.5000002,0.01694976 Z m 0,9.04930834 -3.75,0 0,-0.646379 3.75,0 0,0.646379 z M 11.25,7.1271211 l -7.4999998,0 0,-0.6463805 7.4999998,0 0,0.6463805 z m 0,-1.9391385 -7.4999998,0 0,-0.646379 7.4999998,0 0,0.646379 z"
     id="path3438" />
  <g
     transform="scale(0.97097758,1.0298899)"
     style="font-style:normal;font-weight:normal;font-size:37.98046494px;line-height:125%;font-family:sans-serif;letter-spacing:0px;word-spacing:0px;fill:#000000;fill-opacity:1;stroke:none;stroke-width:1px;stroke-linecap:butt;stroke-linejoin:miter;stroke-opacity:1"
     id="text3471">
    <path
       d="m 0.50970817,15.764396 0,6.551631 3.95946343,0 0,-0.626678 -3.2663199,0 0,-5.924953 -0.69314353,0 z"
       style="font-style:normal;font-variant:normal;font-weight:normal;font-stretch:normal;font-size:9.49511623px;line-height:125%;font-family:D-DIN;-inkscape-font-specification:'D-DIN, Normal';text-align:start;writing-mode:lr-tb;text-anchor:start;fill:#ffffff"
       id="path3495" />
    <path
       d="m 3.8779522,15.764396 2.1269061,6.551631 0.5697069,0 2.1364012,-6.551631 -0.7216288,0 -1.6901307,5.431207 -1.6996258,-5.431207 -0.7216289,0 z"
       style="font-style:normal;font-variant:normal;font-weight:normal;font-stretch:normal;font-size:9.49511623px;line-height:125%;font-family:D-DIN;-inkscape-font-specification:'D-DIN, Normal';text-align:start;writing-mode:lr-tb;text-anchor:start;fill:#ffffff"
       id="path3497" />
    <path
       d="m 9.5411956,15.764396 0,6.551631 3.9594634,0 0,-0.626678 -3.26632,0 0,-5.924953 -0.6931434,0 z"
       style="font-style:normal;font-variant:normal;font-weight:normal;font-stretch:normal;font-size:9.49511623px;line-height:125%;font-family:D-DIN;-inkscape-font-specification:'D-DIN, Normal';text-align:start;writing-mode:lr-tb;text-anchor:start;fill:#ffffff"
       id="path3499" />
  </g>
</svg>
