<svg fill="#FFFFFF" xmlns="http://www.w3.org/2000/svg" xmlns:xlink="http://www.w3.org/1999/xlink" version="1.1" x="0px" y="0px" viewBox="0 0 91 91" style="enable-background:new 0 0 91 91;" xml:space="preserve"><g><path d="M9.9,37.7h2.1c0.1,0,2.5,0,4.1,1.7c1,1,1.5,2.4,1.4,4.1c-0.1,4.2,4.6,6.3,7.7,7.8c0.9,0.4,1.7,0.8,2.2,1.1l16.6,9.9   c0.1,0.1,3.5,1.9,5.2-0.4c2.2-3.1-0.6-5.3-0.9-5.6l-10.8-8.8c-0.9-0.6-2.1-1.9-2.3-3.5c0,0,0-0.1,0-0.1c0,0,0-0.1,0-0.1   c0-0.1,0-0.2,0-0.3c-0.3-3.4,0.7-5.5,3.4-7.2c0.4-0.3,1-0.1,1.3,0.3c0.3,0.4,0.1,1-0.3,1.3c-0.6,0.4-1,0.7-1.4,1.1   c-0.1,0.1-0.1,0.2,0,0.4c0.1,0.1,0.2,0.2,0.3,0.2c0.4-0.1,0.8-0.1,1.3-0.1c1.2,0,2.3,0.3,2.8,0.5l9.7,2.8c0.4,0.1,0.7,0.5,0.7,1   l-0.9,14c-0.1,1.1-0.1,3.6,1,4.8c0.4,0.5,1,0.8,1.9,0.8c2.9,0,3.7-3.3,3.7-3.4l3.7-19.1h0c0.1-0.5,0.5-2.2-0.5-3.3L47,22.8   c0,0-0.1-0.1-0.1-0.1c0,0-0.5-0.6-1.4-1.3c-0.1-0.1-0.3-0.1-0.3-0.2c0,0,0,0-0.1-0.1c-1.7-1.2-4.9-2.5-9.7-2.1L9.1,19.4   c-0.1,0-0.2,0.1-0.3,0.2c-4.3,8.2-0.5,15.9,0.7,18C9.6,37.6,9.7,37.7,9.9,37.7z"></path><path d="M52.4,25.2c0,0.1,0,0.3,0.1,0.3l7.4,7.5c0.1,0.1,0.1,0.1,0.2,0.1c0,0,0,0,0,0l18.7-0.9c2.4,0,5.1-0.8,5.4-3.4v0   c0.1-1-0.1-1.8-0.6-2.3c-0.8-0.9-2.3-1.1-2.9-1.1L52.6,25C52.5,25,52.4,25.1,52.4,25.2z"></path><path d="M56.7,22.9c0,0.2,0.2,0.3,0.3,0.3l16,0.2c0,0,0,0,0,0c0,0,0.1,0,0.1,0l1.5-0.6c0,0,0,0,0.1,0v0c0.8-0.4,3.5-2,3.1-4.1   c-0.1-0.9-0.5-1.5-1-1.8c-0.9-0.5-2-0.3-2.3-0.2l0,0l-17.6,5.9C56.8,22.7,56.7,22.8,56.7,22.9z"></path><path d="M48.4,21.5l1.3,1.3c0.1,0.1,0.1,0.1,0.2,0.1c0,0,0.1,0,0.1,0l16.3-5.5c0.1,0,0.1-0.1,0.1-0.1c0.5-0.6,1.6-2.2,0.5-3.8   c-1.1-1.6-2.6-1.4-3-1.3c0,0,0,0-0.1,0l-16,8.1c-0.1,0-0.2,0.1-0.2,0.2c0,0.1,0,0.2,0.1,0.3C48.1,21.2,48.3,21.4,48.4,21.5z"></path><path d="M50.1,66.3c-1.6,0-2.9,1.3-2.9,2.9s1.3,2.9,2.9,2.9c1.6,0,2.9-1.3,2.9-2.9S51.7,66.3,50.1,66.3z"></path><path d="M53.9,76.8c-1.6,0-2.9,1.3-2.9,2.9c0,1.6,1.3,2.9,2.9,2.9c1.6,0,2.9-1.3,2.9-2.9C56.8,78.1,55.5,76.8,53.9,76.8z"></path><path d="M42.9,72.9c-1.6,0-2.9,1.3-2.9,2.9c0,1.6,1.3,2.9,2.9,2.9s2.9-1.3,2.9-2.9C45.8,74.2,44.5,72.9,42.9,72.9z"></path></g></svg>