<svg xmlns="http://www.w3.org/2000/svg" xmlns:xlink="http://www.w3.org/1999/xlink" version="1.1" x="0px" y="0px" viewBox="0 0 100 100" enable-background="new 0 0 100 100" xml:space="preserve"><path fill="#fff" d="M81.493,50.175c-0.991-1.387-6.768-11.012-6.826-11.109l-0.009,0.005c-0.251-0.523-0.893-1.137-1.476-1.328  c-1.288-0.421-3.16,0.002-4.651,1.053c-0.055,0.039-0.089,0.081-0.131,0.122c-5.984-4.946-25.466-14.93-29.931-14.758  c-3.954,0.151-10.837,7.674-13.182,10.37c-0.165-0.012-0.328-0.033-0.495-0.033c-0.035,0-0.069,0.001-0.11,0.005  C20.998,34.563,18,37.608,18,41.292c0,3.746,3.046,6.793,6.793,6.793c3.746,0,6.793-3.048,6.793-6.793  c0-1.143-0.298-2.271-0.852-3.274c2.951-1.182,5.755-2.799,5.755-2.799c-0.083,2.575-1.654,13.771-2.574,20.159l-0.081,0.037  c-0.109,0.005-0.331,0.041-0.508,0.237c-0.85,0.418-2.829,1.565-3.428,3.396c-0.309,0.942-0.204,1.904,0.311,2.858  c0.262,0.71,3.167,8.63,3.488,9.708c0.433,1.45,1.735,3.344,3.575,4.078c0.252,0.102,0.579,0.149,1.026,0.149  c5.408,0,32.393-8.008,42.837-21.358C81.203,54.382,82.788,51.99,81.493,50.175z M24.793,46.646c-2.951,0-5.353-2.402-5.353-5.354  c0-2.902,2.361-5.302,5.261-5.348l0.091-0.005c1.91,0,3.689,1.034,4.645,2.698c0.464,0.81,0.709,1.727,0.709,2.655  C30.147,44.244,27.745,46.646,24.793,46.646z M79.97,53.636L79.97,53.636c-9.955,12.723-36.585,20.765-41.673,20.765  c-0.373,0-0.488-0.044-0.493-0.046c-1.489-0.594-2.447-2.21-2.728-3.151c-0.347-1.166-3.404-9.491-3.535-9.845l-0.046-0.101  c-0.342-0.615-0.417-1.192-0.229-1.762c0.253-0.773,0.937-1.417,1.573-1.874c-0.127,0.858-0.246,1.783-0.29,2.129  c-0.112,0.455,0.053,0.77,0.166,0.92c0.369,0.496,1.045,0.496,1.267,0.496c2.347,0,8.781-2.494,16.391-6.353  c19.726-10.002,20.1-12.243,20.399-14.042c0.103-0.616-0.238-1.016-0.607-1.274c0.912-0.443,1.921-0.597,2.57-0.385  c0.258,0.084,0.497,0.381,0.618,0.561l0.079,0.133c0.239,0.397,5.866,9.771,6.889,11.204C81.018,51.988,79.966,53.636,79.97,53.636z  "></path></svg>